<svg width="24" height="24" viewBox="0 0 24 24" fill="none" xmlns="http://www.w3.org/2000/svg">
<rect width="24" height="24" fill="#CDCDCD"/>
<g id="Sample-Car-Repair" clip-path="url(#clip0_23_74147)">
<rect width="1440" height="7330" transform="translate(-336 -7120)" fill="white"/>
<g id="BG" filter="url(#filter0_d_23_74147)">
<rect x="-336" y="-6320" width="1440" height="6510" fill="#F5F5F5"/>
</g>
<g id="Footer">
<rect id="Background" x="-336" y="-240" width="1440" height="440" fill="#F5F5F5"/>
<g id="Group 6">
<g id="youtube 1">
<path id="Vector" d="M10 15L15.19 12L10 9V15ZM21.56 7.17C21.69 7.64 21.78 8.27 21.84 9.07C21.91 9.87 21.94 10.56 21.94 11.16L22 12C22 14.19 21.84 15.8 21.56 16.83C21.31 17.73 20.73 18.31 19.83 18.56C19.36 18.69 18.5 18.78 17.18 18.84C15.88 18.91 14.69 18.94 13.59 18.94L12 19C7.81 19 5.2 18.84 4.17 18.56C3.27 18.31 2.69 17.73 2.44 16.83C2.31 16.36 2.22 15.73 2.16 14.93C2.09 14.13 2.06 13.44 2.06 12.84L2 12C2 9.81 2.16 8.2 2.44 7.17C2.69 6.27 3.27 5.69 4.17 5.44C4.64 5.31 5.5 5.22 6.82 5.16C8.12 5.09 9.31 5.06 10.41 5.06L12 5C16.19 5 18.8 5.16 19.83 5.44C20.73 5.69 21.31 6.27 21.56 7.17Z" fill="#C40B0B"/>
</g>
</g>
</g>
</g>
<defs>
<filter id="filter0_d_23_74147" x="-340" y="-6320" width="1448" height="6518" filterUnits="userSpaceOnUse" color-interpolation-filters="sRGB">
<feFlood flood-opacity="0" result="BackgroundImageFix"/>
<feColorMatrix in="SourceAlpha" type="matrix" values="0 0 0 0 0 0 0 0 0 0 0 0 0 0 0 0 0 0 127 0" result="hardAlpha"/>
<feOffset dy="4"/>
<feGaussianBlur stdDeviation="2"/>
<feComposite in2="hardAlpha" operator="out"/>
<feColorMatrix type="matrix" values="0 0 0 0 0 0 0 0 0 0 0 0 0 0 0 0 0 0 0.25 0"/>
<feBlend mode="normal" in2="BackgroundImageFix" result="effect1_dropShadow_23_74147"/>
<feBlend mode="normal" in="SourceGraphic" in2="effect1_dropShadow_23_74147" result="shape"/>
</filter>
<clipPath id="clip0_23_74147">
<rect width="1440" height="7330" fill="white" transform="translate(-336 -7120)"/>
</clipPath>
</defs>
</svg>
